<?xml version="1.0" standalone="no"?>
<!DOCTYPE svg PUBLIC "-//W3C//DTD SVG 20010904//EN"
 "http://www.w3.org/TR/2001/REC-SVG-20010904/DTD/svg10.dtd">
<svg version="1.0" xmlns="http://www.w3.org/2000/svg"
 width="512.000000pt" height="512.000000pt" viewBox="0 0 512.000000 512.000000"
 preserveAspectRatio="xMidYMid meet">
<metadata>
Created by potrace 1.14, written by Peter Selinger 2001-2017
</metadata>
<g transform="translate(0.000000,512.000000) scale(0.100000,-0.100000)"
fill="#000000" stroke="none">
<path d="M2466 3877 c-26 -26 -26 -29 -27 -174 -1 -363 2 -475 14 -493 19 -31
62 -45 96 -31 51 22 52 31 49 367 -3 346 -2 339 -72 351 -28 4 -39 1 -60 -20z"/>
<path d="M1508 3694 c-38 -20 -45 -66 -20 -129 53 -134 213 -509 223 -521 32
-39 110 -20 129 32 11 27 -2 65 -111 324 -28 69 -64 156 -79 193 -15 38 -36
77 -46 87 -26 25 -64 31 -96 14z"/>
<path d="M3431 3693 c-11 -10 -59 -111 -107 -228 -47 -115 -92 -223 -99 -240
-39 -94 -45 -112 -40 -135 7 -37 49 -70 81 -64 51 9 61 23 119 166 32 79 64
157 71 173 67 152 105 260 100 282 -15 57 -81 82 -125 46z"/>
<path d="M710 3153 c-26 -10 -50 -47 -50 -78 0 -25 31 -61 223 -252 199 -200
226 -223 255 -223 23 0 41 8 58 27 50 54 39 72 -198 310 -214 214 -241 234
-288 216z"/>
<path d="M4043 2937 c-195 -195 -223 -227 -223 -254 0 -43 28 -74 73 -80 38
-5 39 -4 251 207 118 117 219 222 226 235 25 48 -17 115 -72 115 -28 0 -58
-26 -255 -223z"/>
<path d="M2350 2834 c-112 -14 -146 -20 -220 -39 -360 -93 -686 -326 -897
-640 -135 -202 -226 -453 -248 -687 -4 -35 -8 -69 -10 -75 -3 -10 -105 -13
-465 -13 l-461 0 -25 -27 c-21 -22 -25 -35 -20 -62 3 -19 12 -42 21 -50 14
-14 261 -16 2531 -19 l2515 -2 25 27 c21 22 25 35 20 62 -11 69 18 66 -546 69
l-510 3 0 27 c-2 141 -69 395 -145 552 -40 82 -40 83 -104 185 -155 244 -429
473 -696 579 -38 16 -79 32 -90 37 -40 17 -172 49 -269 64 -127 21 -286 24
-406 9z"/>
<path d="M4645 2274 c-99 -41 -193 -81 -210 -89 -16 -7 -60 -25 -98 -40 -73
-30 -97 -54 -97 -98 0 -34 40 -77 73 -77 20 0 451 173 560 225 83 39 59 157
-31 155 -9 -1 -98 -35 -197 -76z"/>
<path d="M155 2328 c-47 -27 -58 -76 -27 -115 22 -28 544 -246 590 -247 40 0
71 28 75 70 7 60 4 62 -470 255 -130 53 -138 54 -168 37z"/>
</g>
</svg>
